<svg id="Layer_4" data-name="Layer 4" xmlns="http://www.w3.org/2000/svg" xmlns:xlink="http://www.w3.org/1999/xlink" viewBox="0 0 447.76 109.56"><defs><style>.cls-1{fill:url(#linear-gradient);}.cls-2{fill:url(#linear-gradient-2);}.cls-3,.cls-4,.cls-5{opacity:0.9;}.cls-3{fill:url(#linear-gradient-3);}.cls-4{fill:url(#linear-gradient-4);}.cls-5{fill:url(#linear-gradient-5);}</style><linearGradient id="linear-gradient" x1="45.16" y1="213.25" x2="461.22" y2="213.25" gradientUnits="userSpaceOnUse"><stop offset="0" stop-color="#57dbfd"/><stop offset="1" stop-color="#bff5fd"/></linearGradient><linearGradient id="linear-gradient-2" x1="72.76" y1="231.74" x2="488.83" y2="231.74" xlink:href="#linear-gradient"/><linearGradient id="linear-gradient-3" x1="67.79" y1="202.73" x2="452.84" y2="202.73" gradientUnits="userSpaceOnUse"><stop offset="0" stop-color="#0caffb"/><stop offset="0.27" stop-color="#0cacf7"/><stop offset="0.52" stop-color="#0ba2ec"/><stop offset="0.76" stop-color="#0992d9"/><stop offset="0.99" stop-color="#067cbf"/><stop offset="1" stop-color="#067bbe"/></linearGradient><linearGradient id="linear-gradient-4" x1="54.25" y1="220.25" x2="394.04" y2="220.25" xlink:href="#linear-gradient-3"/><linearGradient id="linear-gradient-5" x1="41.07" y1="238.04" x2="361.77" y2="238.04" xlink:href="#linear-gradient-3"/></defs><path class="cls-1" d="M45.16,210.1l4.5,1.76c1.46.58,3.26,1.34,5.43,2l3.46,1.2c1.22.44,2.52.9,3.93,1.3,2.81.83,5.88,1.86,9.31,2.66,1.71.43,3.47.91,5.32,1.35l5.75,1.24a207.25,207.25,0,0,0,26.92,3.5l7.59.3,7.87,0,8.12-.36,8.34-.73a183.76,183.76,0,0,0,34.67-7.5c5.81-1.88,11.76-4.1,17.73-6.46s12.05-4.87,18.28-7.25c3.12-1.19,6.25-2.38,9.45-3.5l2.4-.84,1.21-.41.6-.2.72-.23,4.8-1.44,2.4-.72,2.55-.63,5.11-1.24c1.7-.41,3.39-.67,5.09-1s3.39-.7,5.1-.91a186.9,186.9,0,0,1,41-1.56c6.74.54,13.41,1.26,19.91,2.44,1.63.29,3.25.54,4.86.85l4.8,1c3.2.62,6.32,1.46,9.44,2.2s6.14,1.69,9.18,2.51,6,1.86,8.88,2.84,5.77,2,8.58,3.1,5.55,2.15,8.23,3.23c10.78,4.33,20.73,8.78,30,12.54,4.64,1.89,9.12,3.59,13.39,5.14,2.15.77,4.22,1.49,6.3,2.18s4,1.27,6,1.84a135.58,135.58,0,0,0,20.51,4.34,98.2,98.2,0,0,0,13.53.71c1.57,0,2.78-.1,3.59-.15l1.23-.07-1.21.21c-.8.15-2,.37-3.57.56a86.87,86.87,0,0,1-13.72.63,120.2,120.2,0,0,1-21.24-2.69c-2-.42-4.11-.9-6.26-1.43s-4.31-1.12-6.54-1.74c-4.46-1.26-9.09-2.76-13.89-4.39S385,222.86,379.91,221s-10.35-3.84-15.75-5.76a297.27,297.27,0,0,0-34.32-10.17c-3-.64-6.06-1.38-9.16-1.89l-4.64-.85c-1.56-.25-3.13-.46-4.7-.7-3.14-.51-6.32-.82-9.51-1.16-.79-.09-1.59-.2-2.39-.27L297,200l-4.83-.37a189,189,0,0,0-38.94,1.75c-1.62.19-3.2.57-4.81.84s-3.23.56-4.79.93L239,204.29l-2.33.56-2.41.71L229.45,207l-.48.14-.58.19-1.16.38-2.33.78c-3.1,1-6.18,2.17-9.26,3.29-12.28,4.59-24.46,9.41-36.85,13.09a178,178,0,0,1-18.44,4.33c-3,.55-6.1.9-9.09,1.35s-6,.58-8.91.86a172.19,172.19,0,0,1-33-.8A180.4,180.4,0,0,1,82,225.18l-5.75-1.68c-1.84-.58-3.59-1.22-5.28-1.81-3.39-1.11-6.4-2.44-9.14-3.52-1.38-.52-2.66-1.1-3.86-1.66L54.63,215c-2.1-.93-3.8-1.87-5.2-2.59Z" transform="translate(-41.07 -164.69)"/><path class="cls-2" d="M72.76,228.59l4.5,1.76c1.47.58,3.27,1.34,5.43,2l3.46,1.2c1.23.44,2.53.9,3.94,1.3,2.81.82,5.87,1.86,9.31,2.66,1.7.42,3.47.91,5.31,1.35l5.76,1.24a208.83,208.83,0,0,0,26.91,3.5l7.59.3,7.88,0,8.12-.36,8.34-.73a184.71,184.71,0,0,0,34.67-7.5c5.81-1.89,11.76-4.1,17.73-6.47s12-4.86,18.27-7.24c3.12-1.19,6.26-2.38,9.46-3.5l2.4-.84,1.2-.41.61-.21.72-.22,4.8-1.44,2.4-.72,2.54-.63,5.11-1.24c1.71-.41,3.4-.67,5.09-1s3.39-.71,5.11-.91a186.9,186.9,0,0,1,41-1.56c6.73.54,13.4,1.26,19.9,2.44,1.63.28,3.26.54,4.87.85l4.8,1c3.2.62,6.32,1.46,9.43,2.2s6.15,1.69,9.18,2.51,6,1.86,8.89,2.84,5.76,2,8.57,3.1,5.56,2.15,8.23,3.23c10.79,4.32,20.73,8.78,30,12.54,4.63,1.89,9.11,3.58,13.39,5.14,2.15.77,4.22,1.49,6.29,2.17s4,1.28,6,1.85a135.57,135.57,0,0,0,20.5,4.33,96.75,96.75,0,0,0,13.54.71c1.57,0,2.77-.09,3.59-.14l1.23-.07-1.22.21c-.8.14-2,.37-3.56.55a86.63,86.63,0,0,1-13.72.64,120.3,120.3,0,0,1-21.25-2.69q-3-.65-6.25-1.44c-2.11-.52-4.31-1.11-6.54-1.73-4.46-1.26-9.09-2.77-13.9-4.39s-9.76-3.41-14.87-5.26-10.35-3.84-15.76-5.76a297.27,297.27,0,0,0-34.32-10.17c-3-.64-6.05-1.38-9.15-1.89l-4.65-.85c-1.56-.26-3.13-.46-4.7-.7-3.13-.51-6.31-.83-9.5-1.17-.8-.08-1.59-.19-2.39-.26l-2.41-.18-4.82-.37a188.27,188.27,0,0,0-38.94,1.75c-1.62.19-3.21.57-4.82.84s-3.22.56-4.78.92l-4.67,1.12-2.34.56-2.4.71-4.81,1.42-.48.14-.58.19-1.17.38-2.32.77c-3.1,1.05-6.19,2.17-9.26,3.3-12.29,4.59-24.47,9.41-36.86,13.09A177.4,177.4,0,0,1,188,247.67c-3,.55-6.1.9-9.08,1.35s-6,.58-8.92.86a173,173,0,0,1-33-.8,180.25,180.25,0,0,1-27.28-5.41L103.86,242c-1.84-.58-3.59-1.23-5.27-1.81-3.39-1.12-6.4-2.44-9.15-3.52-1.38-.53-2.65-1.1-3.85-1.66l-3.36-1.56c-2.09-.93-3.79-1.87-5.19-2.59Z" transform="translate(-41.07 -164.69)"/><path class="cls-3" d="M67.79,182.45l3.75-2.59c1.21-.87,2.81-1.78,4.69-2.89s4.11-2.25,6.63-3.52a92.4,92.4,0,0,1,19.33-6.58,97.45,97.45,0,0,1,26.72-2,117.09,117.09,0,0,1,31.19,6.44,143.08,143.08,0,0,1,16,6.76c5.31,2.57,10.52,5.49,15.72,8.48s10.36,6.1,15.55,9.12,10.44,6,15.77,8.63l2,1,.5.25.44.21,1.06.49c1.41.65,2.87,1.35,4.2,1.91s2.7,1.19,4.12,1.76,2.79,1.17,4.2,1.71c5.64,2.24,11.4,4.22,17.24,5.94a210.79,210.79,0,0,0,35.53,7.35l1.11.14,1.11.11,2.31.24,4.46.41c3,.25,6,.48,8.91.63,5.9.31,11.72.36,17.41.21a147.15,147.15,0,0,0,16.58-1.42c2.68-.39,5.29-.88,7.84-1.45,1.29-.27,2.52-.64,3.77-.95l3.92-1.08c5.24-1.45,10.42-2.87,15.46-4.08,2.53-.59,5-1.2,7.48-1.7l3.66-.76,3.62-.65a130.33,130.33,0,0,1,26.47-2.13,83,83,0,0,1,20.23,3.11,58.13,58.13,0,0,1,7.08,2.57,44.2,44.2,0,0,1,5,2.38l4,2.26-4.31-1.45a45.67,45.67,0,0,0-5.22-1.44,72.52,72.52,0,0,0-7.15-1.32,89.27,89.27,0,0,0-19.41-.21A141.63,141.63,0,0,0,392,223.21c-8.94,2.49-18.48,5.81-28.65,9.51-1.3.46-2.53.94-3.9,1.39s-2.79,1-4.21,1.35c-2.84.84-5.74,1.57-8.68,2.19a140.61,140.61,0,0,1-18.07,2.54c-6.14.51-12.37.64-18.66.54-3.14,0-6.29-.17-9.45-.33l-4.79-.33-2.31-.19-1.22-.1-1.2-.12a200.83,200.83,0,0,1-38.33-7.46q-9.4-2.83-18.5-6.51c-3-1.21-6-2.51-9-3.92-1.54-.7-2.89-1.38-4.3-2.07l-1.06-.51-.6-.31-.55-.28-2.16-1.13c-5.74-3-11.17-6.29-16.39-9.6s-10.27-6.59-15.18-9.77-9.77-6.15-14.56-8.89A148.63,148.63,0,0,0,156,182c-2.4-1-4.76-2-7.15-2.83-1.19-.42-2.36-.88-3.54-1.25l-3.54-1.1c-1.16-.39-2.33-.69-3.5-1l-3.46-.89-3.44-.69c-1.14-.23-2.26-.48-3.39-.62a99.79,99.79,0,0,0-24.85-1A102,102,0,0,0,84,176.3c-2.59.84-5,1.52-6.92,2.31s-3.72,1.36-5.06,2Z" transform="translate(-41.07 -164.69)"/><path class="cls-4" d="M54.25,200l3.2-2.54c1-.85,2.39-1.75,4-2.85.81-.53,1.66-1.19,2.65-1.72l3.1-1.78a74.58,74.58,0,0,1,17.11-6.66,77.34,77.34,0,0,1,24.09-2,95.36,95.36,0,0,1,28,6.61,120.46,120.46,0,0,1,14.13,6.77c4.65,2.54,9.18,5.4,13.69,8.32s9,6,13.44,8.92,9,5.84,13.59,8.49l3.39,1.89,3.71,1.94,3.53,1.73,3.64,1.72a160.59,160.59,0,0,0,15,6,165.11,165.11,0,0,0,31.2,7.54l2,.28,2,.23c1.4.18,2.68.3,4,.43,2.62.28,5.27.5,7.88.68,5.23.33,10.39.41,15.42.28a116.39,116.39,0,0,0,14.62-1.35c1.18-.17,2.34-.4,3.48-.64s2.28-.49,3.4-.77,2.2-.6,3.29-.91,2.3-.71,3.43-1.06c4.66-1.46,9.22-2.89,13.72-4.12s8.88-2.33,13.16-3.18A104,104,0,0,1,361.86,230,62.92,62.92,0,0,1,380,233.08,51,51,0,0,1,390.63,238c1.16.66,2,1.29,2.55,1.68l.86.59-1-.39c-.64-.26-1.57-.66-2.82-1.09a56,56,0,0,0-10.95-2.75,66.23,66.23,0,0,0-17.23-.2,112.3,112.3,0,0,0-21.79,4.92c-7.86,2.51-16.23,5.85-25.16,9.53l-1.69.7-.85.35-.93.35c-1.25.46-2.5,1-3.78,1.35s-2.56.84-3.87,1.18-2.61.72-3.93,1a115.39,115.39,0,0,1-16.31,2.51,151.59,151.59,0,0,1-16.82.46c-2.84-.08-5.66-.19-8.53-.38-1.44-.11-2.91-.22-4.26-.36l-2.13-.2-2.16-.24a162,162,0,0,1-34.33-7.82,174.23,174.23,0,0,1-16.37-6.67l-4-1.91-4-2.07-3.68-2-3.85-2.26c-5-3-9.66-6.26-14.14-9.49s-8.8-6.44-13-9.53-8.37-6-12.47-8.66a124.94,124.94,0,0,0-12.32-7.08c-2.08-1-4.11-2-6.2-2.81-1-.41-2-.85-3.08-1.25l-3.08-1.09-1.53-.54-1.53-.44-3-.89-3-.7c-1-.22-2-.49-3-.62a77.17,77.17,0,0,0-22-1,81,81,0,0,0-16.92,3.68c-2.28.83-4.37,1.52-6.09,2.3s-3.26,1.35-4.44,2Z" transform="translate(-41.07 -164.69)"/><path class="cls-5" d="M41.07,218.83l3-2.41c1-.81,2.26-1.67,3.78-2.72.77-.51,1.57-1.13,2.5-1.64l2.93-1.69A70,70,0,0,1,69.44,204a72.77,72.77,0,0,1,22.79-2,90,90,0,0,1,26.5,6.18,114.66,114.66,0,0,1,13.39,6.38c4.4,2.39,8.69,5.1,12.95,7.85s8.47,5.61,12.7,8.4,8.49,5.49,12.81,8l3.19,1.78,3.49,1.82,3.32,1.63,3.44,1.61a150.93,150.93,0,0,0,14.12,5.63,156.73,156.73,0,0,0,29.35,7.11l1.85.26,1.89.22c1.32.17,2.53.28,3.76.41,2.46.27,5,.48,7.41.65,4.93.32,9.78.4,14.51.28A106.93,106.93,0,0,0,270.67,259c1.11-.15,2.19-.37,3.27-.58s2.14-.47,3.19-.72,2.07-.56,3.1-.85l.76-.22.83-.26,1.65-.51c4.37-1.36,8.73-2.7,13-3.86,2.14-.54,4.21-1.13,6.3-1.6l3.09-.73c1-.23,2.05-.42,3.06-.62a97.78,97.78,0,0,1,22.51-2,61.74,61.74,0,0,1,17.16,3,44.11,44.11,0,0,1,5.9,2.48,35,35,0,0,1,4.1,2.26l3.22,2.14-3.6-1.35a34.6,34.6,0,0,0-4.37-1.32,53.06,53.06,0,0,0-6-1.22,64.74,64.74,0,0,0-16.22-.11,105,105,0,0,0-20.51,4.72c-7.41,2.38-15.27,5.54-23.71,9l-1.59.66-.8.33-.88.33c-1.18.44-2.37.92-3.58,1.29s-2.42.8-3.66,1.12-2.47.69-3.73,1a106.18,106.18,0,0,1-15.43,2.4,140.42,140.42,0,0,1-15.92.46c-2.68-.07-5.35-.17-8.07-.35-1.36-.11-2.75-.21-4-.34l-2-.18-2.05-.23a153,153,0,0,1-32.48-7.39q-7.92-2.77-15.49-6.31l-3.75-1.81-3.75-2-3.47-1.92L163,251.55c-4.72-2.86-9.13-5.93-13.36-9s-8.31-6.08-12.27-9-7.88-5.64-11.73-8.18a119.57,119.57,0,0,0-11.58-6.69c-2-.9-3.86-1.91-5.82-2.66-1-.39-1.93-.81-2.9-1.18l-2.89-1-1.44-.52-1.44-.42L96.76,212l-2.84-.66c-.94-.21-1.86-.47-2.79-.6a72.59,72.59,0,0,0-20.66-1,75.83,75.83,0,0,0-16,3.39c-2.16.76-4.13,1.41-5.76,2.13s-3.09,1.26-4.2,1.85Z" transform="translate(-41.07 -164.69)"/></svg>