<svg id="OBJECTS" xmlns="http://www.w3.org/2000/svg" xmlns:xlink="http://www.w3.org/1999/xlink" viewBox="0 0 434.1 127.15"><defs><style>.cls-1{fill:url(#linear-gradient);}.cls-2{fill:url(#linear-gradient-2);}.cls-3{fill:url(#linear-gradient-3);}.cls-4,.cls-5{opacity:0.9;}.cls-4{fill:url(#linear-gradient-4);}.cls-5{fill:url(#linear-gradient-5);}</style><linearGradient id="linear-gradient" x1="119.15" y1="228.29" x2="396.21" y2="228.29" gradientUnits="userSpaceOnUse"><stop offset="0" stop-color="#57dbfd"/><stop offset="1" stop-color="#bff5fd"/></linearGradient><linearGradient id="linear-gradient-2" x1="39.06" y1="192.67" x2="444.57" y2="192.67" xlink:href="#linear-gradient"/><linearGradient id="linear-gradient-3" x1="67.64" y1="204.37" x2="473.16" y2="204.37" xlink:href="#linear-gradient"/><linearGradient id="linear-gradient-4" x1="74.19" y1="223.78" x2="472.7" y2="223.78" gradientUnits="userSpaceOnUse"><stop offset="0" stop-color="#0caffb"/><stop offset="0.27" stop-color="#0cacf7"/><stop offset="0.52" stop-color="#0ba2ec"/><stop offset="0.76" stop-color="#0992d9"/><stop offset="0.99" stop-color="#067cbf"/><stop offset="1" stop-color="#067bbe"/></linearGradient><linearGradient id="linear-gradient-5" x1="109.74" y1="240.8" x2="471.46" y2="240.8" xlink:href="#linear-gradient-4"/></defs><path class="cls-1" d="M396.21,207.37l-12.3-1.3c-3.91-.43-8.66-.83-14.09-1.28s-11.55-.73-18.2-.81a187.22,187.22,0,0,0-21.34.92c-1.88.21-3.78.39-5.7.67l-2.89.39-2.91.49-1.46.25-.72.12-.75.15-3,.57c-2,.38-4,.82-6,1.27a245.43,245.43,0,0,0-24.47,6.92q-3.08,1-6.14,2.19l-.77.28-.73.29-1.56.6-3,1.21c-4,1.69-8,3.55-12,5.5s-8.05,3.91-12.15,5.84c-2.05,1-4.12,1.91-6.21,2.81l-3.15,1.33L233.65,237c-4.08,1.68-8.17,3.33-12.22,4.91l-6.07,2.35-6,2.22c-8,2.88-15.89,5.35-23.47,7.34a181.38,181.38,0,0,1-21.73,4.21,120.46,120.46,0,0,1-18.71.74l-4-.17c-1.3-.12-2.54-.29-3.74-.44l-3.42-.43c-1.09-.14-2.11-.41-3.09-.59-2-.41-3.69-.73-5.18-1.13l-3.73-1.14-3.09-1,3.21.43,3.82.55c1.52.15,3.27.22,5.21.37,1,.05,2,.18,3.06.18l3.37,0,3.65,0,3.9-.27,2-.13c.69,0,1.39-.1,2.1-.21l4.37-.58c.75-.11,1.51-.19,2.27-.31l2.31-.43,4.77-.89A211.75,211.75,0,0,0,183.85,247c7.22-2.39,14.73-5.21,22.46-8.35,3.85-1.61,7.77-3.22,11.73-4.92l12-5.19,3.05-1.32,3-1.32q3-1.35,5.95-2.77l12.07-5.89c4.08-2,8.24-3.87,12.5-5.63l3.25-1.3,1.57-.58.83-.31.8-.28q3.22-1.12,6.44-2.16c4.3-1.38,8.61-2.58,12.9-3.64s8.56-2,12.78-2.76c2.12-.38,4.2-.73,6.3-1,1.06-.17,2.08-.31,3.09-.45l.77-.1.79-.09,1.56-.18,3.07-.34,3.06-.24c2-.19,4-.26,6-.34a165.72,165.72,0,0,1,22.12.73c6.8.67,13,1.67,18.38,2.71s10.09,2.08,13.93,3,6.83,1.74,8.86,2.29Z" transform="translate(-39.06 -158.71)"/><path class="cls-2" d="M39.06,207.52l4.7,2c.77.32,1.61.73,2.57,1.09l3.14,1.15c1.13.4,2.33.86,3.63,1.31l4.2,1.3,2.27.71c.78.23,1.6.41,2.42.62l5.19,1.3,5.69,1.13,1.49.3,1.52.23,3.13.48a188.94,188.94,0,0,0,28.68,1.8c1.32,0,2.65,0,4-.06l4.07-.18c2.73-.08,5.52-.35,8.35-.57,1.41-.09,2.83-.25,4.27-.4l4.34-.45q4.36-.52,8.85-1.17c6-.93,12.05-2,18.3-3.34s12.52-2.77,18.88-4.47,12.8-3.58,19.24-5.68q4.83-1.59,9.67-3.32l4.83-1.76,4.87-1.84c13-5,26.24-10.57,40.38-14.44,3.53-.95,7.15-1.82,10.72-2.48.86-.17,1.79-.32,2.72-.48s1.85-.32,2.75-.43c1.82-.28,3.64-.5,5.46-.7a146.22,146.22,0,0,1,21.81-.65q5.4.25,10.73.83c3.56.41,7,.94,10.55,1.57,3.33.6,6.88,1.35,10.19,2.11s6.65,1.59,9.9,2.42c13,3.3,25.23,6.83,37.08,8.56s23.09,1.74,33.1-.47a59.89,59.89,0,0,0,13.84-4.79,36.31,36.31,0,0,0,10.63-7.49,19.21,19.21,0,0,0,3.26-4.74c.18-.4.39-.87.51-1.23l.24-.7c.07-.22.11-.41.16-.61a12.71,12.71,0,0,0,.42-2.54,12,12,0,0,0-2.74-8.74,9,9,0,0,0-1.53-1.37l-.11-.08s-.08-.06,0,0l-.06,0-.23-.14-.47-.26a8.45,8.45,0,0,0-.85-.37,9,9,0,0,0-3.55-.48,9.22,9.22,0,0,0-3.09.73,8.92,8.92,0,0,0-2.3,1.37,7,7,0,0,0-2.11,3,6.13,6.13,0,0,0-.24.94l-.07.32,0-.32a6.27,6.27,0,0,1,.14-1,7.17,7.17,0,0,1,1.88-3.37,9.5,9.5,0,0,1,2.31-1.71,10.51,10.51,0,0,1,7.47-1c.36.13.8.24,1.12.39l.49.23.25.11.06,0,.12.07.12.08a11,11,0,0,1,2,1.48,14.23,14.23,0,0,1,4.14,10.13c.14,4.19-1.65,8.52-4.57,12.14a40.3,40.3,0,0,1-11.22,9.17,61.88,61.88,0,0,1-14.71,6,81.46,81.46,0,0,1-17,2.75,111.59,111.59,0,0,1-18.36-.54c-6.19-.67-12.54-1.77-18.89-3.08s-12.76-2.9-19.23-4.37c-3.23-.75-6.48-1.47-9.74-2.14s-6.45-1.27-9.89-1.8a170.37,170.37,0,0,0-20.1-1.9c-3.39-.1-6.8-.09-10.21,0s-6.82.4-10.22.76c-1.7.19-3.4.41-5.09.67-.85.11-1.67.27-2.5.41s-1.64.27-2.53.46c-3.42.63-6.72,1.45-10.06,2.35-13.35,3.59-26.38,9-39.63,13.89a339,339,0,0,1-39.82,12.08c-6.57,1.56-13,2.94-19.47,4s-12.7,2-18.84,2.67a223.68,223.68,0,0,1-34.87,1.25,170.31,170.31,0,0,1-29.24-3.68L75.21,222l-1.54-.35-1.5-.4-5.69-1.6-5.16-1.76c-.82-.29-1.63-.53-2.4-.84l-2.24-.9-4.12-1.67c-1.28-.57-2.45-1.17-3.55-1.69l-3-1.46c-.92-.45-1.72-.94-2.45-1.33Z" transform="translate(-39.06 -158.71)"/><path class="cls-3" d="M67.64,219.23l4.71,2c.77.32,1.61.73,2.57,1.09l3.13,1.15c1.14.41,2.34.87,3.64,1.32l4.2,1.3,2.27.7c.78.24,1.6.41,2.42.63l5.19,1.29,5.69,1.14,1.48.29,1.53.24,3.13.48a191.56,191.56,0,0,0,28.68,1.8c1.32,0,2.64,0,4-.06l4.06-.19c2.74-.08,5.52-.35,8.35-.56,1.42-.09,2.84-.26,4.28-.41l4.34-.44q4.37-.54,8.85-1.18c6-.93,12-2,18.3-3.33S201,223.73,207.33,222s12.79-3.59,19.24-5.68c3.22-1.07,6.44-2.17,9.67-3.33l4.83-1.76,4.87-1.83c12.95-5,26.23-10.58,40.38-14.45,3.53-1,7.14-1.81,10.72-2.47.85-.18,1.79-.33,2.71-.48s1.86-.32,2.76-.44q2.73-.4,5.46-.7a146.17,146.17,0,0,1,21.81-.64q5.4.24,10.73.83c3.56.41,7,.94,10.55,1.56,3.32.6,6.88,1.36,10.19,2.11s6.65,1.59,9.9,2.42c13,3.3,25.22,6.83,37.07,8.56s23.1,1.74,33.11-.46a59.2,59.2,0,0,0,13.83-4.8A36.39,36.39,0,0,0,465.8,193a19.35,19.35,0,0,0,3.25-4.74c.18-.41.39-.87.52-1.23l.24-.71c.07-.22.1-.4.16-.61a13.35,13.35,0,0,0,.41-2.53,12,12,0,0,0-2.73-8.75,9,9,0,0,0-1.54-1.37L466,173h0l-.06,0-.24-.13-.46-.27c-.32-.18-.57-.24-.85-.37a8.8,8.8,0,0,0-3.55-.47,9.22,9.22,0,0,0-3.09.72,8.77,8.77,0,0,0-2.3,1.38,6.88,6.88,0,0,0-2.11,3,5.8,5.8,0,0,0-.24.93l-.07.33,0-.33a6.34,6.34,0,0,1,.14-1,7,7,0,0,1,1.87-3.37,9.52,9.52,0,0,1,2.32-1.72,10.33,10.33,0,0,1,3.31-1.13,10,10,0,0,1,4.16.17,11.3,11.3,0,0,1,1.12.38l.49.23.25.11.06,0,.11.07.13.08a11.47,11.47,0,0,1,2,1.48,14.27,14.27,0,0,1,4.14,10.13,18.8,18.8,0,0,1-4.58,12.14,40.25,40.25,0,0,1-11.21,9.17,62.49,62.49,0,0,1-14.71,6.06,82.78,82.78,0,0,1-17,2.75,111.47,111.47,0,0,1-18.35-.54c-6.19-.67-12.55-1.77-18.89-3.09s-12.76-2.89-19.23-4.37c-3.23-.74-6.48-1.46-9.75-2.14s-6.44-1.26-9.89-1.8a172.35,172.35,0,0,0-20.09-1.9q-5.1-.13-10.21,0c-3.41.14-6.82.4-10.22.76-1.7.2-3.4.41-5.09.67-.86.12-1.67.27-2.5.41s-1.65.27-2.54.46c-3.41.64-6.71,1.46-10.05,2.35-13.35,3.59-26.38,9-39.64,13.9a338.8,338.8,0,0,1-39.81,12.07c-6.57,1.57-13,3-19.47,4s-12.7,2-18.84,2.68a223.66,223.66,0,0,1-34.87,1.24A169.32,169.32,0,0,1,107,234.45l-3.16-.71-1.54-.34-1.49-.41-5.7-1.6-5.16-1.75c-.82-.29-1.62-.54-2.39-.84l-2.25-.91-4.12-1.67c-1.27-.57-2.45-1.16-3.55-1.68l-3-1.46c-.92-.46-1.72-1-2.46-1.34Z" transform="translate(-39.06 -158.71)"/><path class="cls-4" d="M74.19,194.25l4.59-.59c3-.33,7.42-.8,13.07-1.09a197.42,197.42,0,0,1,46.94,3.55c2.4.5,4.87,1,7.34,1.62l3.77.92,3.8,1c2.57.67,5.13,1.51,7.76,2.32s5.29,1.75,7.85,2.67c10.44,3.69,21.32,7.82,32.51,11.95,5.61,2,11.29,4.13,17.05,6.11s11.6,3.88,17.5,5.67c2.95.86,5.92,1.73,8.91,2.5,1.49.41,3,.8,4.48,1.15l2.25.56,1,.26,1.17.26,4.67,1.06c1.54.34,3,.61,4.53.91s3,.6,4.55.85l4.6.79c6.14,1,12.32,1.82,18.49,2.41s12.34,1,18.47,1.18a289.26,289.26,0,0,0,36-1.11l4.35-.43,4.3-.52c2.85-.34,5.7-.76,8.43-1.19,5.54-.86,10.93-2,16.17-3.2s10.31-2.59,15.19-4,9.59-3,14.27-4.4,9.24-2.69,13.69-3.56l1.61-.32,1.67-.28c1.11-.2,2.19-.37,3.25-.51s2.1-.28,3.14-.39,2-.21,3.05-.28a103.3,103.3,0,0,1,20.64.43A96.13,96.13,0,0,1,468.25,223c1.47.34,2.57.72,3.32.93l1.13.34-1.18-.11c-.77-.07-1.92-.2-3.42-.3a113.9,113.9,0,0,0-12.93-.25A116.12,116.12,0,0,0,435.49,226a126.12,126.12,0,0,0-24.25,7.83c-4.37,1.82-9,3.82-13.94,5.75s-10.09,3.73-15.47,5.43-11,3.18-16.81,4.49c-2.95.67-5.85,1.26-8.84,1.76l-4.49.77-4.55.68c-1.52.24-3.06.42-4.6.61s-3.09.39-4.65.54c-3.11.27-6.25.6-9.42.77s-6.36.36-9.56.48c-1.61.07-3.22,0-4.83.07s-3.23,0-4.85,0c-6.48,0-13-.37-19.54-.91s-13.07-1.4-19.58-2.42l-4.86-.87c-1.62-.28-3.25-.6-4.88-1s-3.3-.67-4.87-1l-4.67-1.09-1.16-.27-1.28-.33-2.39-.61c-1.58-.41-3.16-.86-4.72-1.32-3.14-.88-6.23-1.86-9.31-2.83-6.15-2-12.13-4.16-18-6.41s-11.57-4.56-17.13-6.93c-11.15-4.7-21.72-9.49-31.76-13.86-2.55-1.14-4.93-2.12-7.35-3.15-1.21-.5-2.42-1-3.62-1.43s-2.38-.95-3.57-1.38c-4.73-1.81-9.4-3.3-13.9-4.7a234.81,234.81,0,0,0-25.06-6.12c-7.58-1.43-14.29-2.31-19.84-2.93s-9.94-.94-13-1.1Z" transform="translate(-39.06 -158.71)"/><path class="cls-5" d="M109.74,195.74l4.27.58c1.39.2,3.11.45,5.13.79s4.34.71,6.92,1.23c5.18.95,11.42,2.34,18.55,4.13s15.1,4.1,23.71,6.94,17.82,6.25,27.41,10.24c2.4,1,4.83,2,7.26,3.1s4.91,2.16,7.39,3.31l1.86.85,1.9.88,3.71,1.77,7.57,3.74c5,2.52,10.11,5.16,15.21,7.8s10.25,5.26,15.43,7.83a274.1,274.1,0,0,0,31.77,13.63c2.72.85,5.41,1.84,8.15,2.56,1.37.38,2.73.8,4.1,1.14l4.12,1,1,.25.25.06h0l.13,0,.55.11,2.18.43c.72.14,1.48.32,2.16.43l2,.37c1.35.26,2.74.48,4.15.69s2.79.42,4.19.58,2.79.36,4.19.49,2.79.29,4.19.37c2.78.25,5.56.4,8.32.51,5.53.22,11,.13,16.39-.14a191.31,191.31,0,0,0,30.9-4.24c9.81-2.11,19-4.68,27.53-7.24,4.26-1.27,8.32-2.58,12.2-3.81s7.77-2.41,11.37-3.27a136.77,136.77,0,0,1,18.9-3.24c5.26-.54,9.41-.63,12.23-.7,1.41,0,2.49,0,3.22,0h1.1l-4.22.88c-2.75.56-6.76,1.5-11.77,2.85a168.82,168.82,0,0,0-17.68,5.85c-3.35,1.33-6.77,2.79-10.47,4.52s-7.7,3.48-11.87,5.25a270.63,270.63,0,0,1-27.67,10.06c-1.25.38-2.55.75-3.86,1.11l-3.86,1-4,1c-1.34.32-2.71.59-4.07.89a170.52,170.52,0,0,1-16.91,2.6,161,161,0,0,1-17.69.93c-3,0-6-.06-9.05-.21-1.51-.06-3-.19-4.55-.3s-3-.26-4.57-.42-3.05-.33-4.57-.54-3-.39-4.62-.66-3.14-.48-4.55-.77l-2.19-.42-.55-.1-.66-.14-1.15-.27-4.58-1c-1.52-.37-3-.82-4.53-1.22-3-.79-6-1.82-8.95-2.76-5.86-2.1-11.64-4.36-17.22-6.89s-11-5.22-16.31-8-10.44-5.62-15.49-8.47l-14.8-8.42-7.17-4-7.1-3.88c-4.68-2.56-9.33-4.92-13.84-7.25-9.05-4.63-17.73-8.78-25.83-12.44s-15.6-6.86-22.32-9.57-12.64-5-17.55-6.77-8.76-3.22-11.43-4.11Z" transform="translate(-39.06 -158.71)"/></svg>