<svg id="Layer_5" data-name="Layer 5" xmlns="http://www.w3.org/2000/svg" xmlns:xlink="http://www.w3.org/1999/xlink" viewBox="0 0 446.82 99.35"><defs><style>.cls-1{fill:url(#linear-gradient);}.cls-2{fill:url(#linear-gradient-2);}.cls-3,.cls-4,.cls-5{opacity:0.9;}.cls-3{fill:url(#linear-gradient-3);}.cls-4{fill:url(#linear-gradient-4);}.cls-5{fill:url(#linear-gradient-5);}</style><linearGradient id="linear-gradient" x1="34.58" y1="186.4" x2="468.54" y2="186.4" gradientUnits="userSpaceOnUse"><stop offset="0" stop-color="#57dbfd"/><stop offset="1" stop-color="#bff5fd"/></linearGradient><linearGradient id="linear-gradient-2" x1="39.16" y1="191.2" x2="468.54" y2="191.2" xlink:href="#linear-gradient"/><linearGradient id="linear-gradient-3" x1="58.66" y1="198.63" x2="481.4" y2="198.63" gradientUnits="userSpaceOnUse"><stop offset="0" stop-color="#0caffb"/><stop offset="0.27" stop-color="#0cacf7"/><stop offset="0.52" stop-color="#0ba2ec"/><stop offset="0.76" stop-color="#0992d9"/><stop offset="0.99" stop-color="#067cbf"/><stop offset="1" stop-color="#067bbe"/></linearGradient><linearGradient id="linear-gradient-4" x1="102.47" y1="219.46" x2="445.15" y2="219.46" xlink:href="#linear-gradient-3"/><linearGradient id="linear-gradient-5" x1="203.15" y1="188.58" x2="463.69" y2="188.58" xlink:href="#linear-gradient-3"/></defs><path class="cls-1" d="M34.58,183l1-.79c.7-.52,1.72-1.3,3.1-2.27C41.46,178,45.49,175.11,51,172a101.1,101.1,0,0,1,20.87-9.27,72.93,72.93,0,0,1,14-2.84,57.68,57.68,0,0,1,7.82-.2c1.39.06,2.61.15,3.94.23s2.69.23,4.05.34c5.43.53,11,1.35,16.81,2.45s11.65,2.54,17.65,4.18c12,3.28,24.35,7.49,37,12.06s25.6,9.27,38.82,13.67a319.08,319.08,0,0,0,40.53,10.88,197.26,197.26,0,0,0,20.68,2.87c1.73.12,3.46.27,5.18.35l2.51.13,2.65.06c1.77,0,3.56.11,5.29.11l5.11-.07c6.83-.19,13.69-.57,20.38-1.38,3.36-.33,6.68-.87,10-1.36,1.65-.23,3.28-.59,4.91-.87s3.25-.57,4.85-1a219.77,219.77,0,0,0,36.25-11c2.79-1.15,5.55-2.26,8.2-3.52l4-1.82,3.86-1.9c2.57-1.22,5-2.59,7.43-3.89s4.78-2.69,7.1-4a223.76,223.76,0,0,1,26.2-13.54,76.39,76.39,0,0,1,22.07-6,43.79,43.79,0,0,1,14.62.9,36.53,36.53,0,0,1,3.68,1.11l1.23.45-1.27-.31c-.84-.23-2.1-.46-3.74-.72a40,40,0,0,0-6.1-.4,51.38,51.38,0,0,0-8.17.8A78.9,78.9,0,0,0,428.42,166c-7.71,3.8-15.9,9.05-24.88,14.87-2.27,1.45-4.53,3-7,4.43s-4.85,3-7.43,4.42l-3.87,2.18c-1.32.69-2.67,1.35-4,2-2.69,1.41-5.5,2.67-8.33,4a203.53,203.53,0,0,1-37.18,12.66c-1.65.44-3.34.74-5,1.11s-3.37.75-5.08,1c-3.42.6-6.86,1.24-10.35,1.67s-7,.85-10.55,1.21c-1.77.2-3.55.25-5.34.37s-3.56.25-5.38.26l-5.46.13c-1.8,0-3.54,0-5.32,0l-2.66,0-2.81-.11c-1.82-.06-3.64-.22-5.46-.34a205.79,205.79,0,0,1-21.71-2.92,301.89,301.89,0,0,1-41.71-11.48c-3.35-1.14-6.68-2.33-10-3.53l-9.78-3.68-19-7.36c-12.5-4.78-24.48-9.45-36.05-13.1-5.79-1.84-11.46-3.42-17-4.78s-10.91-2.46-16.12-3.24c-1.3-.18-2.56-.38-3.85-.54s-2.64-.32-3.81-.44a62.32,62.32,0,0,0-7.19-.23,68.89,68.89,0,0,0-13.33,1.76,107.91,107.91,0,0,0-20.93,7.43c-5.62,2.66-9.93,5-12.83,6.68Z" transform="translate(-34.58 -156.5)"/><path class="cls-2" d="M39.16,180l1.09-.67c.73-.44,1.79-1.13,3.22-1.94,2.84-1.66,7-4.06,12.64-6.65,2.82-1.25,6-2.64,9.48-3.89,1.75-.68,3.61-1.24,5.54-1.85s4-1.13,6.11-1.57a79.18,79.18,0,0,1,13.81-1.91c1.23-.05,2.49-.05,3.76-.06s2.56.12,3.86.17l1,.06,1,.1,1.91.2c1.29.15,2.55.24,3.89.44,5.36.69,10.8,1.68,16.43,2.88s11.34,2.82,17.17,4.56c11.65,3.52,23.66,7.87,35.94,12.4,6.16,2.25,12.39,4.45,18.77,6.61s12.81,4.23,19.33,6.24c13.07,4,26.45,7.62,40,10.41,6.76,1.41,13.55,2.64,20.35,3.62l2.54.36,1.22.17,1.29.16,5.16.62,5,.49,5.06.37c1.68.14,3.37.17,5.05.26s3.36.13,5,.16c3.35.12,6.68.09,10,.06,6.63-.09,13.16-.54,19.56-1.2,3.21-.31,6.37-.77,9.5-1.2s6.22-1,9.26-1.59c6.09-1.15,12-2.53,17.68-4.17,2.84-.77,5.67-1.69,8.34-2.57s5.38-1.9,8-2.89c5.21-2,10.17-4.12,14.9-6.29s9.18-4.44,13.43-6.59l6.24-3.18,3.09-1.47,3-1.33a75.73,75.73,0,0,1,21.62-5.95,42.53,42.53,0,0,1,14.33.81c.8.21,1.52.34,2.12.55l1.49.53,1.21.43-1.25-.29-1.53-.36c-.61-.13-1.33-.2-2.14-.32a43.68,43.68,0,0,0-14,.53,78.8,78.8,0,0,0-20.35,7.38l-2.83,1.49-2.85,1.61-6,3.6q-6.19,3.72-13.22,7.46a190.57,190.57,0,0,1-31.57,13.66c-5.81,1.94-11.88,3.61-18.15,5.06A188.84,188.84,0,0,1,335.31,219a225.92,225.92,0,0,1-41.16,1.62l-5.27-.33-5.33-.45c-1.76-.17-3.46-.38-5.19-.57l-1.3-.15-1.37-.18-2.63-.37q-10.51-1.49-21-3.65A408.47,408.47,0,0,1,211.32,204c-6.63-2.1-13.12-4.36-19.53-6.7s-12.65-4.72-18.77-7.12c-12.26-4.77-23.92-9.61-35.17-13.49-5.62-1.94-11.14-3.64-16.51-5.15s-10.64-2.72-15.66-3.64c-1.24-.27-2.56-.43-3.82-.65l-1.89-.3-.89-.15-.91-.1c-1.2-.11-2.38-.3-3.56-.35s-2.35-.15-3.51-.18a75.56,75.56,0,0,0-13.19.89c-2.07.28-4,.72-6,1.1s-3.76.86-5.51,1.37c-3.53.92-6.71,2-9.59,3-5.71,2.11-10.14,4-13.11,5.38Z" transform="translate(-34.58 -156.5)"/><path class="cls-3" d="M58.66,195.35l4.22-2.65,5.1-3.15c2-1.18,4.45-2.46,7.15-3.91s5.75-2.92,9.08-4.51c1.68-.77,3.39-1.67,5.24-2.41l5.73-2.35c3.93-1.71,8.28-3.06,12.81-4.68l1.72-.59,1.76-.52,3.59-1.05,3.69-1.06,1.87-.55,1.92-.46a237.59,237.59,0,0,1,33.69-5.92l9.23-.75c3.12-.15,6.29-.21,9.49-.32l2.41-.08c.81,0,1.61,0,2.42,0l4.89.1c1.63,0,3.28,0,4.93.13l5,.34,5,.35c1.69.09,3.36.35,5,.54l5.07.63,2.55.32,2.54.43,5.1.88c1.7.32,3.42.54,5.12,1l10.27,2.37c1.67.45,3.26.85,5,1.35s3.43,1,5.1,1.48c3.38,1,6.73,2.09,10.05,3.23,6.66,2.29,13.24,4.76,19.75,7.32,13,5.2,25.68,10.62,38.19,15.86l9.35,3.86,9.25,3.78c6.14,2.48,12.23,4.83,18.22,7.11s11.93,4.36,17.75,6.37l4.36,1.46c1.43.47,2.85.92,4.28,1.36q4.26,1.32,8.43,2.45a131.93,131.93,0,0,0,16.27,3.4,86.62,86.62,0,0,0,15.29.89l1.94-.07.95,0,.88-.08c1.18-.11,2.33-.18,3.51-.31l3.5-.47,3.41-.58a124.59,124.59,0,0,0,12.71-3.08c7.93-2.36,14.77-5,20.36-7.26s10-4.14,13-5.44l4.6-1.94-4.19,2.72c-2.76,1.73-6.75,4.35-12,7.39a180.87,180.87,0,0,1-19.69,10.08,119.64,119.64,0,0,1-13,4.72c-1.18.33-2.37.69-3.59,1l-3.74.87c-1.28.28-2.62.5-4,.74l-1,.19-1,.13-1.92.25c-10.95,1.42-22.85.48-34.9-1.9-3-.57-6-1.28-9.07-2-1.52-.37-3-.76-4.58-1.17l-4.55-1.24c-6.11-1.67-12.28-3.61-18.52-5.63s-12.53-4.25-18.85-6.56l-9.52-3.53-9.53-3.72c-12.75-5-25.52-10.38-38.25-15.39-6.35-2.55-12.71-5-19.08-7.21-3.18-1.11-6.36-2.19-9.54-3.21q-2.38-.78-4.73-1.48c-1.52-.48-3.23-.94-4.85-1.41l-9.5-2.4c-1.57-.45-3.18-.7-4.77-1.05l-4.77-1-2.37-.49-2.39-.37-4.75-.75c-1.58-.22-3.15-.55-4.72-.71l-4.72-.54-4.68-.54c-1.55-.14-3.11-.21-4.65-.33l-4.62-.31c-.77-.06-1.53-.13-2.29-.16l-2.29-.06c-3-.07-6.05-.19-9-.22L157,173c-1.46,0-2.89.11-4.32.19l-4.27.25c-1.41.09-2.81.16-4.2.26l-4.12.43-4.05.4c-1.35.13-2.68.25-4,.47l-7.72,1.12-1.89.27-1.85.35-3.64.68-3.56.68-1.75.32-1.72.4c-4.53,1.07-8.88,2-12.88,3.15l-5.84,1.61c-1,.24-1.85.56-2.75.84l-2.64.84c-3.45,1.1-6.65,2.06-9.44,3.17l-7.55,2.78-5.54,2.3Z" transform="translate(-34.58 -156.5)"/><path class="cls-4" d="M102.47,200.22l3.73-1.57c2.45-1,6-2.49,10.63-4.23s10.26-3.79,16.92-5.74a139.62,139.62,0,0,1,23-4.81,108.58,108.58,0,0,1,13.63-.78h2.12c.1,0-.07,0,.26,0l.43,0,.86,0,3.48.19c2.27.06,4.88.44,7.41.7a159.6,159.6,0,0,1,30.59,7.1c5.12,1.68,10.27,3.56,15.37,5.62s10.22,4.19,15.3,6.44c10.18,4.45,20.25,9.2,30.38,13.49,2.45,1.07,5.13,2.18,7.66,3.25s5.08,2.11,7.64,3.12c5.12,2,10.19,4.08,15.26,5.93s10.13,3.62,15.14,5.26,10,3,14.93,4.39A213.09,213.09,0,0,0,366,244.21l3.56.42c1.18.14,2.29.22,3.42.34,2.25.24,4.49.36,6.7.55s4.36.26,6.49.34,4.21.13,6.25.09a128.78,128.78,0,0,0,22.17-1.84,101.34,101.34,0,0,0,16.69-4.46c2.23-.9,4.29-1.62,6-2.45s3.21-1.42,4.34-2.08l3.58-1.87-3.1,2.61c-1,.88-2.34,1.8-3.91,2.94s-3.46,2.3-5.59,3.63a90,90,0,0,1-16.54,7.4,116.43,116.43,0,0,1-23.1,5c-4.3.52-8.8.79-13.45,1-2.32.06-4.68.11-7.1.07-1.2,0-2.45,0-3.64,0l-3.58-.1a189.45,189.45,0,0,1-31-3.84c-5.28-1.11-10.62-2.4-15.95-3.9-2.67-.74-5.33-1.54-8-2.35s-5.32-1.71-8-2.63c-5.31-1.82-10.63-3.73-15.88-5.82-2.63-1-5.27-2.09-7.9-3.15l-3.89-1.61-1.94-.8-2-.85c-10.47-4.52-20.63-9.38-30.51-14.07l-7.39-3.43c-2.45-1.15-4.88-2.27-7.3-3.33-4.84-2.18-9.66-4.15-14.4-6a174.18,174.18,0,0,0-27.82-8.5c-2.23-.42-4.29-1-6.69-1.23l-3.44-.49-.86-.13-.42-.06c.26,0,0,0,0,0h-.1l-.2,0-1.62-.16c-2.15-.26-4.28-.36-6.38-.49-1-.05-2.09-.06-3.12-.09s-2,0-3.07,0A160.41,160.41,0,0,0,135,194.42c-6.68.94-12.52,2-17.34,2.94l-11.21,2.13Z" transform="translate(-34.58 -156.5)"/><path class="cls-5" d="M203.15,158.61l3-.44c2-.26,4.91-.65,8.65-.94s8.3-.59,13.55-.53c2.62,0,5.42.1,8.37.28,1.48.09,3,.23,4.55.4l2.31.27,2.43.36c3.23.51,6.57,1.21,10,2.07s6.86,1.92,10.39,3c7,2.32,14.32,4.78,21.86,7.69s15.22,6,22.93,9.41,15.49,6.84,23.28,10.25,15.56,6.77,23.27,9.87q2.89,1.17,5.79,2.25c1.91.75,3.83,1.47,5.74,2.15l2.86,1,2.84,1,2.88,1,2.8.87a177.76,177.76,0,0,0,21.94,5.35c3.53.63,7,1,10.36,1.37l5,.4,4.79.14c1.57.07,3.1,0,4.6-.06l2.23-.06,2.16-.18c1.43-.12,2.83-.17,4.17-.35l3.92-.54c1.28-.14,2.48-.45,3.65-.67l3.4-.7c2.14-.58,4.13-1.07,5.9-1.61l4.69-1.6c1.36-.47,2.47-1,3.4-1.37l2.84-1.17-2.64,1.56c-.88.49-1.92,1.17-3.23,1.83l-4.53,2.18c-1.73.74-3.68,1.46-5.81,2.31-1.07.37-2.21.7-3.39,1.06s-2.4.78-3.69,1a93.51,93.51,0,0,1-17.56,2.72,112.8,112.8,0,0,1-21-.66,157.59,157.59,0,0,1-23.06-4.49l-3-.81-2.91-.88-3-.92-2.95-1c-2-.64-4-1.33-5.93-2s-4-1.44-5.94-2.21c-7.92-3-15.82-6.35-23.66-9.78s-15.58-7-23.2-10.48-15.11-6.88-22.41-9.93c-3.6-1.54-7.33-3-10.84-4.43s-7-2.84-10.43-4.14a156.31,156.31,0,0,0-19.32-6.2L243,161.8l-2.27-.44c-1.44-.26-2.93-.5-4.34-.73-2.84-.44-5.56-.77-8.13-1-5.13-.49-9.63-.74-13.35-.86s-6.66-.15-8.66-.14Z" transform="translate(-34.58 -156.5)"/></svg>